C:\Users\israe\Dropbox\PhDWork\ExperimentalData\subject2\055\P2S055W01_filtered35.mot
nRows=15
nColumns=28

name C:\Users\israe\Dropbox\PhDWork\ExperimentalData\subject2\055\P2S055W01_filtered35.mot
datacolumns 28
datarows 15
range 0.8970000000 0.9110000000
endheader
time	ground_force_1_vx	ground_force_1_vy	ground_force_1_vz	ground_force_1_px	ground_force_1_py	ground_force_1_pz	ground_moment_1_mx	ground_moment_1_my	ground_moment_1_mz	ground_force_2_vx	ground_force_2_vy	ground_force_2_vz	ground_force_2_px	ground_force_2_py	ground_force_2_pz	ground_moment_2_mx	ground_moment_2_my	ground_moment_2_mz	ground_force_3_vx	ground_force_3_vy	ground_force_3_vz	ground_force_3_px	ground_force_3_py	ground_force_3_pz	ground_moment_3_mx	ground_moment_3_my	ground_moment_3_mz
        0.8970000000	        0.0000000000	        0.0000000000	       -0.0000000000	        0.1988394961	        0.0000558755	       -0.3004071324	       -0.0000000000	        0.0000000000	        0.0000000000	        0.0000000000	        0.0000000000	       -0.0000000000	        0.2029003516	       -0.0000795827	        0.4543649445	        0.0000000000	        0.0000000000	        0.0000000000	      -24.5543576485	      609.5540843976	      -33.5083293941	        0.2076431971	        0.0000770316	        1.3583900146	       13.1257378010	        5.6454225731	       31.4188521793	
        0.8980000000	        0.0000000000	        0.0000000000	       -0.0000000000	        0.1988394961	        0.0000558755	       -0.3004071324	       -0.0000000000	        0.0000000000	        0.0000000000	        0.0000000000	        0.0000000000	       -0.0000000000	        0.2029003516	       -0.0000795827	        0.4543649445	       -0.0000000000	       -0.0000000000	       -0.0000000000	      -24.6729908151	      610.1270895485	      -33.8382078558	        0.2076431971	        0.0000770316	        1.3583900146	       13.3676225592	        5.6734993523	       31.4573344413	
        0.8990000000	        0.0000000000	        0.0000000000	        0.0000000000	        0.1988394961	        0.0000558755	       -0.3004071324	       -0.0000000000	        0.0000000000	        0.0000000000	        0.0000000000	        0.0000000001	       -0.0000000001	        0.2029003516	       -0.0000795827	        0.4543649445	       -0.0000000000	       -0.0000000000	       -0.0000000000	      -24.7869027634	      610.7384050805	      -34.1686147125	        0.2076431971	        0.0000770316	        1.3583900146	       13.6075648100	        5.7006157352	       31.4964939076	
        0.9000000000	        0.0000000000	        0.0000000000	        0.0000000000	        0.1988394961	        0.0000558755	       -0.3004071324	        0.0000000000	        0.0000000000	       -0.0000000000	        0.0000000000	        0.0000000001	       -0.0000000001	        0.2029003516	       -0.0000795827	        0.4543649445	       -0.0000000000	       -0.0000000000	       -0.0000000000	      -24.8963011114	      611.3857867184	      -34.4988221806	        0.2076431971	        0.0000770316	        1.3583900146	       13.8461374052	        5.7268801183	       31.5357345073	
        0.9010000000	        0.0000000000	        0.0000000000	        0.0000000000	        0.1988394961	        0.0000558755	       -0.3004071324	        0.0000000000	        0.0000000000	       -0.0000000000	        0.0000000000	        0.0000000002	       -0.0000000001	        0.2029003516	       -0.0000795827	        0.4543649445	       -0.0000000001	       -0.0000000000	       -0.0000000000	      -25.0013879560	      612.0683135118	      -34.8284262196	        0.2076431971	        0.0000770316	        1.3583900146	       14.0836817300	        5.7526147287	       31.5745714824	
        0.9020000000	        0.0000000000	        0.0000000000	        0.0000000000	        0.1988394961	        0.0000558755	       -0.3004071324	        0.0000000000	        0.0000000000	       -0.0000000000	        0.0000000000	        0.0000000004	       -0.0000000002	        0.2029003516	       -0.0000795827	        0.4543649445	       -0.0000000001	       -0.0000000000	       -0.0000000000	      -25.1023717168	      612.7853561488	      -35.1578840269	        0.2076431971	        0.0000770316	        1.3583900146	       14.3204299931	        5.7782698292	       31.6128046307	
        0.9030000000	        0.0000000000	        0.0000000000	        0.0000000000	        0.1988394961	        0.0000558755	       -0.3004071324	        0.0000000000	        0.0000000000	       -0.0000000000	        0.0000000000	        0.0000000005	       -0.0000000003	        0.2029003516	       -0.0000795827	        0.4543649445	       -0.0000000001	       -0.0000000000	       -0.0000000000	      -25.2000219329	      613.5358594975	      -35.4887961948	        0.2076431971	        0.0000770316	        1.3583900146	       14.5564703093	        5.8043678210	       31.6505384493	
        0.9040000000	        0.0000000000	        0.0000000000	        0.0000000000	        0.1988394961	        0.0000558755	       -0.3004071324	        0.0000000000	       -0.0000000000	       -0.0000000000	        0.0000000000	        0.0000000007	       -0.0000000003	        0.2029003516	       -0.0000795827	        0.4543649445	       -0.0000000002	       -0.0000000000	       -0.0000000001	      -25.2956609009	      614.3188499074	      -35.8235139956	        0.2076431971	        0.0000770316	        1.3583900146	       14.7917003919	        5.8314267676	       31.6879859233	
        0.9050000000	        0.0000000000	        0.0000000000	        0.0000000000	        0.1988394961	        0.0000558755	       -0.3004071324	        0.0000000000	       -0.0000000000	       -0.0000000000	        0.0000000000	        0.0000000009	       -0.0000000004	        0.2029003516	       -0.0000795827	        0.4543649445	       -0.0000000002	       -0.0000000000	       -0.0000000001	      -25.3902318731	      615.1346528907	      -36.1647378437	        0.2076431971	        0.0000770316	        1.3583900146	       15.0259004161	        5.8599360243	       31.7254036047	
        0.9060000000	        0.0000000000	        0.0000000000	        0.0000000000	        0.1988394961	        0.0000558755	       -0.3004071324	        0.0000000000	       -0.0000000000	       -0.0000000000	        0.0000000000	        0.0000000012	       -0.0000000005	        0.2029003516	       -0.0000795827	        0.4543649445	       -0.0000000003	       -0.0000000000	       -0.0000000001	      -25.4833169185	      615.9844951222	      -36.5156366742	        0.2076431971	        0.0000770316	        1.3583900146	       15.2586638752	        5.8903678902	       31.7632600680	
        0.9070000000	        0.0000000000	        0.0000000000	        0.0000000000	        0.1988394961	        0.0000558755	       -0.3004071324	        0.0000000000	       -0.0000000000	       -0.0000000000	       -0.0000000000	        0.0000000014	       -0.0000000006	        0.2029003516	       -0.0000795827	        0.4543649445	       -0.0000000003	       -0.0000000000	       -0.0000000001	      -25.5728794632	      616.8687502650	      -36.8801189936	        0.2076431971	        0.0000770316	        1.3583900146	       15.4892204468	        5.9231535421	       31.8022751617	
        0.9080000000	        0.0000000000	        0.0000000000	        0.0000000000	        0.1988394961	        0.0000558755	       -0.3004071324	        0.0000000000	       -0.0000000000	       -0.0000000000	       -0.0000000000	        0.0000000016	       -0.0000000006	        0.2029003516	       -0.0000795827	        0.4543649445	       -0.0000000004	       -0.0000000000	       -0.0000000001	      -25.6557960606	      617.7866735619	      -37.2625343005	        0.2076431971	        0.0000770316	        1.3583900146	       15.7164806370	        5.9585994250	       31.8431468432	
        0.9090000000	        0.0000000000	        0.0000000000	        0.0000000000	        0.1988394961	        0.0000558755	       -0.3004071324	        0.0000000000	       -0.0000000000	       -0.0000000000	       -0.0000000000	        0.0000000017	       -0.0000000006	        0.2029003516	       -0.0000795827	        0.4543649445	       -0.0000000004	       -0.0000000001	       -0.0000000001	      -25.7285063741	      618.7380116791	      -37.6664303425	        0.2076431971	        0.0000770316	        1.3583900146	       15.9393066459	        5.9967969067	       31.8862455528	
        0.9100000000	        0.0000000000	        0.0000000000	        0.0000000000	        0.1988394961	        0.0000558755	       -0.3004071324	        0.0000000000	       -0.0000000000	       -0.0000000000	       -0.0000000000	        0.0000000018	       -0.0000000006	        0.2029003516	       -0.0000795827	        0.4543649445	       -0.0000000004	       -0.0000000000	       -0.0000000001	      -25.7873141086	      619.7242858582	      -38.0935623193	        0.2076431971	        0.0000770316	        1.3583900146	       16.1567045717	        6.0376406522	       31.9316464400	
        0.9110000000	        0.0000000000	        0.0000000000	        0.0000000000	        0.1988394961	        0.0000558755	       -0.3004071324	        0.0000000000	       -0.0000000000	       -0.0000000000	       -0.0000000000	        0.0000000017	       -0.0000000005	        0.2029003516	       -0.0000795827	        0.4543649445	       -0.0000000004	       -0.0000000000	       -0.0000000001	      -25.8283603776	      620.7484504082	      -38.5444198583	        0.2076431971	        0.0000770316	        1.3583900146	       16.3677968597	        6.0809688360	       31.9794327891	
